<svg width="418" height="56" viewBox="0 0 418 56" fill="none" xmlns="http://www.w3.org/2000/svg" class="logo-tenant logo-sbermarket _2GlNB"><path d="M160.03 16.929l7.476-5.493h-25.01v33.008h25.01v-5.493h-17.874v-8.454h15.247v-5.499h-15.247v-8.07h10.398zM123.614 24.3h-8.684v-7.371h13.867l7.476-5.5h-28.479v33.015h14.901c8.362 0 13.154-3.781 13.154-10.37 0-6.3-4.348-9.774-12.235-9.774zm-1.24 14.651h-7.444V29.8h7.444c4.528 0 6.641 1.532 6.641 4.576 0 3.109-2.235 4.576-6.641 4.576zM187.77 11.436h-13.616v33.008h7.135v-9.351h6.481c8.69 0 14.091-4.557 14.091-11.845-.006-7.287-5.401-11.812-14.091-11.812zm-.154 18.164h-6.327V16.929h6.327c4.573 0 7.09 2.25 7.09 6.332 0 4.083-2.517 6.339-7.09 6.339zM95.54 37.298c-1.83 1.006-3.963 1.538-6.16 1.538-6.435 0-11.104-4.583-11.104-10.896 0-6.313 4.669-10.902 11.105-10.902 2.434 0 4.617.686 6.493 2.025l5.119-3.762-.341-.295C97.666 12.384 93.671 11 89.104 11c-4.952 0-9.448 1.666-12.659 4.692-3.23 3.044-5.003 7.332-5.003 12.062 0 4.756 1.773 9.101 4.99 12.242 3.224 3.147 7.714 4.884 12.634 4.884 5.144 0 9.64-1.788 12.685-5.05l-4.618-3.398-1.593.866z" fill="#21A038"></path><path d="M248.747 19.64l-10.623 17.523h-2.974l-10.861-17.292v24.541h-5.902v-32.97h7.457l10.95 17.947 10.861-17.947h6.988V44.42h-5.902V19.64h.006zM292.511 44.419h-6.281l-3.16-7.82h-15.151l-3.115 7.82h-5.992l13.404-32.977h6.705l13.59 32.977zm-11.612-13.242l-5.427-13.524-5.427 13.524h10.854zM302.608 34.144v10.268h-5.903v-32.97h11.002c10.431 0 14.869 3.724 14.869 11.166 0 7.678-5.19 11.543-14.869 11.543h-5.099v-.007zm0-17.286v11.87h5.523c5.479 0 8.311-1.788 8.311-6.268 0-4.05-2.453-5.608-8.214-5.608h-5.62v.006zM334.522 44.419h-5.902V11.442h5.902v13.851h4.959l10.623-13.85h7.174l-12.601 15.69 14.637 17.292h-7.56l-11.991-14.274h-5.241V44.42zM384.606 30.145h-15.202v8.858h17.47v5.416h-23.366V11.442h22.852v5.416h-16.95v7.865h15.203v5.422h-.007zM417.985 16.858h-11.143v27.56h-5.903v-27.56h-10.95v-5.416h27.996v5.416z" fill="#FF8000"></path><path d="M50.541 10.88a28.03 28.03 0 013.381 5.564L28.215 35.248l-10.74-6.682v-8.039l10.74 6.683 22.326-16.33z" fill="#21A038"></path><path d="M6.518 27.999c0-.36.009-.719.027-1.075L.035 26.6c-.022.464-.035.93-.035 1.398 0 7.73 3.157 14.732 8.264 19.8l4.615-4.58c-3.926-3.9-6.361-9.283-6.361-15.22z" fill="url(#sbermarket_svg__paint0_linear)"></path><path d="M28.212 6.467c.364 0 .725.013 1.084.03l.326-6.462A29.988 29.988 0 0028.212 0a28.235 28.235 0 00-19.95 8.201l4.614 4.58a21.712 21.712 0 0115.336-6.314z" fill="url(#sbermarket_svg__paint1_linear)"></path><path d="M28.214 49.531c-.363 0-.724-.008-1.083-.026l-.326 6.46c.467.022.937.035 1.409.035 7.79 0 14.844-3.133 19.95-8.201l-4.614-4.58a21.728 21.728 0 01-15.336 6.312z" fill="url(#sbermarket_svg__paint2_linear)"></path><path d="M40.447 10.224l5.488-4.013A28.22 28.22 0 0028.215 0v6.469a21.676 21.676 0 0112.232 3.755z" fill="url(#sbermarket_svg__paint3_linear)"></path><path d="M56.428 27.999c0-1.713-.156-3.388-.452-5.018l-6.073 4.442c.004.191.009.382.009.574 0 6.321-2.76 12.016-7.148 15.958l4.38 4.805c5.701-5.121 9.284-12.527 9.284-20.761z" fill="#21A038"></path><path d="M28.216 49.531c-6.37 0-12.107-2.74-16.08-7.093l-4.84 4.347A28.235 28.235 0 0028.215 56V49.53z" fill="url(#sbermarket_svg__paint4_linear)"></path><path d="M13.665 12.039l-4.38-4.805C3.582 12.357 0 19.763 0 27.997h6.518c.002-6.323 2.76-12.016 7.147-15.958z" fill="url(#sbermarket_svg__paint5_linear)"></path><defs><linearGradient id="sbermarket_svg__paint0_linear" x1="9.584" y1="46.988" x2="2.559" y2="26.526" gradientUnits="userSpaceOnUse"><stop offset="0.144" stop-color="#F2E913"></stop><stop offset="0.304" stop-color="#E7E518"></stop><stop offset="0.582" stop-color="#CADB26"></stop><stop offset="0.891" stop-color="#A3CD39"></stop></linearGradient><linearGradient id="sbermarket_svg__paint1_linear" x1="10.124" y1="9.345" x2="28.431" y2="2.316" gradientUnits="userSpaceOnUse"><stop offset="0.059" stop-color="#0FA8E0"></stop><stop offset="0.538" stop-color="#0099F9"></stop><stop offset="0.923" stop-color="#0291EB"></stop></linearGradient><linearGradient id="sbermarket_svg__paint2_linear" x1="26.375" y1="52.096" x2="47.101" y2="47.376" gradientUnits="userSpaceOnUse"><stop offset="0.123" stop-color="#A3CD39"></stop><stop offset="0.285" stop-color="#86C339"></stop><stop offset="0.869" stop-color="#21A038"></stop></linearGradient><linearGradient id="sbermarket_svg__paint3_linear" x1="26.852" y1="2.167" x2="44.562" y2="7.673" gradientUnits="userSpaceOnUse"><stop offset="0.057" stop-color="#0291EB"></stop><stop offset="0.79" stop-color="#0C8ACB"></stop></linearGradient><linearGradient id="sbermarket_svg__paint4_linear" x1="8.93" y1="45.997" x2="28.197" y2="53.25" gradientUnits="userSpaceOnUse"><stop offset="0.132" stop-color="#F2E913"></stop><stop offset="0.298" stop-color="#EBE716"></stop><stop offset="0.531" stop-color="#D9E01F"></stop><stop offset="0.802" stop-color="#BBD62D"></stop><stop offset="0.983" stop-color="#A3CD39"></stop></linearGradient><linearGradient id="sbermarket_svg__paint5_linear" x1="2.429" y1="28.781" x2="10.076" y2="8.738" gradientUnits="userSpaceOnUse"><stop offset="0.07" stop-color="#A3CD39"></stop><stop offset="0.26" stop-color="#81C55F"></stop><stop offset="0.922" stop-color="#0FA8E0"></stop></linearGradient></defs></svg>